<?xml version="1.0" standalone="no"?>
<!DOCTYPE svg PUBLIC "-//W3C//DTD SVG 1.0//EN"
"http://www.w3.org/TR/2001/REC-SVG-20010904/DTD/svg10.dtd">


<svg width="800" height="600" 
     xmlns="http://www.w3.org/2000/svg" 
     xmlns:xlink="http://www.w3.org/1999/xlink">


<symbol id="skala_cz">
   <path d="M0,33 l3,-21 10,5 3,-17 3,8 1,25 z" 
         fill="black"/>
</symbol>

<symbol id="skala_sz">
   <path d="M0,33 l3,-21 10,5 3,-17 3,8 1,25 z" 
         fill="darkgray"
	 stroke="black"/>
</symbol>

<image id="mapa_rastrowa" x="0" y="0" width="640" height="480"
             xlink:href="map.jpg"/>


<g id="mapa_wekt" opacity="0.5">
 <g id="lasy" visibility="visible">
    <path d="M325,480 l9,-15 1,-10 4,-19 4,-23 1,-20 -1,-49 -1,-8 -2,-23 -4,-10
             1,-11 6,-15 7,-6 19,-5 4,-9 0,-3 10,-4 2,-6 4,-4 11,-4
             11,-4 4,-3 7,-4 3,-2 7,-2 4,-3 13,-7 7,-9 0,-13 31,-54
             3,0 12,0 12,-9 6,0 3,0 0,1 0,9 13,3 11,12 3,1
             -3,10 -21,8 -1,1 -3,0 -10,-4 -18,14 0,-3 -3,14 0,16 2,8
             1,13 17,5 3,0 8,1 6,0 -2,13 -50,4 -22,13 -60,52 6,15
             3,26 10,14 14,18 7,12 0,9 -7,8 2,16 18,24 0,2 7,20 z"
             fill="green"/>


    <path d="M 317,2 l0,6 -2,18 -4,9 -4,20 -2,5 -5,23 -5,31 4,74 1,19
             6,20 7,5 9,16 8,11 11,4 8,0 5,-3 7,-4 3,-2 2,-2
             5,-11 2,-3 3,0 7,0 1,-2 0,-12 0,-4 0,-4 8,-3 19,-2
             11,-1 15,-2 19,-40 0,-8 0,-3 1,-4 9,-16 3,-16 0,-10 0,-7
             -6,-11 -1,-10 -20,-25 0,-19 3,-7 2,-2 5,-17 -13,-8 -7,26 -20,13
             -1,2 14,17 7,107 -38,6 -4,-1 -15,-23 3,-9 9,-9 2,-1 8,0
             6,0 10,4 6,-4 1,-5 0,-1 -4,-11 1,-5 2,-2 0,-7 -4,-1
             -1,-4 -9,-2 -7,-5 -15,0 -12,-1 -4,-3 -1,-16 0,-11 0,-22 1,-13
             2,-6 5,-11 3,-6 z"
             fill="green"/>

    <path d="M 0,0 l272,0 0,4 0,5 0,10 0,5 -1,8 -2,14 -3,5 0,4
             0,20 -1,3 -3,4 -3,5 0,5 -2,10 0,5 -1,16 -3,22 0,4
             0,5 0,28 7,20 1,3 0,25 10,7 7,10 10,27 0,28 0,14
             5,8 -1,74 6,49 -4,10 0,9 0,5 0,8 -293,1 z"
             fill="green"/>
 </g>



 <path d="M 249,192 l-6,0 -3,1 -2,-4 -12,0 -3,2 -6,3 -6,3 -5,1 -9,1
          -4,0 -1,1 2,-3 3,-2 2,-1 1,-3 3,-1 3,-2 1,-4 1,-1
          8,0 7,0 7,1 2,1 9,0 4,1 1,5 z"
       fill="white"/>


 <path d="M 245,98 l-12,0 -4,0 -22,0 -21,2 -14,2 0,-5 0,-14 -3,-10 -5,-3
          2,-16 0,0 1,-14 11,-3 7,12 5,2 9,-3 2,-6 -12,-6 -4,-11
          -6,-3 30,-12 0,-5 0,-2 1,-3 43,0 6,4 0,5 0,5 -6,7
          0,3 2,3 -3,7 -7,5 -3,14 0,8 0,11 4,16 4,3 -1,4 z"
       fill="white"/>


 <g id="poziomice" visibility="visible">
    <path d="M 535,124 l-6,0 -3,1 -12,13 -4,10 -4,6 -1,8 0,8 0,4 1,9
             8,13 6,1 13,7 6,1 6,8 4,12 -10,7 -1,6 0,6 -3,9
             -1,14 -15,3 -5,1 -13,4 -2,4 -2,6 -2,3 -4,5 -44,19 -4,5
             -8,3 -2,2 -3,3 -5,2 -9,3 0,7 0,8 2,3 5,2 5,7
             6,2 9,7 1,3 4,9 6,8 1,10 0,23 -12,11 -1,5 -1,9
             3,6 4,2 9,2 5,2 9,4 9,5 5,7 1,5 0,3"
             fill="none"
             stroke="brown"/>

    <path d="M 560,335 l8,17 3,6 5,15 -5,26 -7,10 -8,5 -16,2 -4,2 -5,-1
             -16,-12 -15,-13 -27,-20 -2,-1 -4,-11 -5,-18 3,-8 10,-2 0,-7 14,-8
             31,-1 14,10 10,3 10,7 z"
             fill="none"
             stroke="brown"/>

    <path d="M 485,354 l1,4 6,6 1,3 10,5 10,2 2,-6 3,-2 4,-1 0,-8
             -3,-8 -6,-3 -5,-1 -8,-1 -13,-1 -2,5 z"
             fill="none"
             stroke="brown"/>

    <path d="M 0,304 l5,0 1,-5 10,0 3,-5 5,-2 6,0 7,-1 2,-2 13,-3
             4,0 3,-5 13,-6 9,-1 4,0 8,0 3,-1 17,0 11,-1 6,-3
             4,0 3,0 3,1 7,0 3,0 13,3 0,11 0,7 0,5 0,3
             0,14 0,2 1,10 1,3 3,3 10,5 19,19 1,3 9,5 9,12
             7,19 0,2 1,19 5,2 0,18 0,4 0,5 -2,13 -8,15 -5,4
             -1,2 "
             fill="none"
             stroke="brown"/>

    <path d="M 0,358 l3,-2 2,-2 2,-2 3,-1 3,-3 0,-8 3,-2 4,-5 3,-5
             2,-6 1,-3 4,-5 1,-1 1,0 1,0 5,-2 2,-4 1,-5 7,-1
             5,-1 3,-2 1,-4 9,-1 0,-2 10,0 0,0 20,1 4,5 10,11
             8,1 6,5 0,6 3,3 7,11 0,7 9,1 0,2 7,6 6,5
             12,8 3,5 7,7 18,21 7,15 0,11 0,10 -17,9 -6,0 -21,-4
             -5,-1 -17,-6 -14,-6 -10,0 -5,0 -8,1 -4,2 -28,21 -22,12 -30,15
             -6,2 -5,1 -4,0 0,1 z"
             fill="none"
             stroke="brown"/>

    <path d="M 2,67 l1,-3 4,-1 8,-1 4,-1 6,0 7,-3 5,-5 3,0 12,-1
             2,-2 6,-1 4,-2 9,-1 9,0 12,-11 5,-5 2,-2 3,0 16,1
             18,22 8,13 3,12 1,9 2,6 0,18 -2,4 -4,10 -2,3 -15,7
             -4,4 -6,3 -30,12 -1,1 -17,11 -1,1 -21,6 -14,8 -4,4 -17,15
             -3,3 -3,3 -2,3 -5,3 -1,0 z"
             fill="none"
             stroke="brown"/>

    <path d="M 1,84 l5,0 3,-2 2,-2 6,0 4,-4 27,-3 7,-1 15,-10 9,0
             4,0 13,-1 13,1 4,8 7,7 0,3 -2,18 -4,4 -4,7 -6,5
             -19,3 -1,1 -1,3 -20,5 -3,4 -6,0 -6,5 -10,7 -2,4 -5,5
             -5,7 -6,5 -6,4 -11,1 -2,0 0,0 z"
             fill="none"
             stroke="brown"/>

    <path d="M 342,0 l0,5 0,3 -1,6 -2,2 -2,6 0,4 0,4 0,2 -4,5
             -1,2 -1,5 -3,5 -1,4 -1,6 0,6 0,7 0,13 -1,8 0,6
             0,3 1,6 2,5 0,4 0,4 0,5 0,4 1,7 3,4 0,6
             0,3 0,5 0,6 0,6 0,4 0,7 -1,10 0,8 0,4 1,8
             4,3 0,10 0,3 0,3 6,10 4,4 2,4 5,1 5,0 2,0
             0,-2 0,-2 6,-1 3,-1 1,-7 2,-2 2,-3 3,-2 1,-3 2,-2
             5,-4 0,-1 1,0 7,-1 7,-2 4,-2 9,-1 2,-3 0,0 11,-2
             11,-4 4,-7 5,-4 8,-28 0,-12 1,-23 0,-9 -2,-7 -4,-9 -2,-6
             -1,-4 "
             fill="none"
             stroke="brown"/>

   <circle cx="496" cy="353" r="3"
           fill="brown"/>

   <circle cx="380" cy="101" r="3"
           fill="brown"/>	

 </g>

 <path id="potok" 
       d="M 292,2 l-3,7 0,4 0,6 0,3 0,2 0,2 0,5 0,7 1,5
          1,3 0,4 1,5 6,4 0,2 0,4 0,2 0,4 0,15 0,9
          -3,10 0,3 0,8 -1,15 1,3 0,9 0,6 2,8 0,4 0,2
          4,26 3,23 1,4 5,9 0,3 1,16 -4,7 -7,6 -1,3 -1,11
          0,5 0,4 5,6 0,23 0,1 0,9 0,48 8,4 1,4 4,4
          2,2 0,4 0,2 -2,4 -3,15 0,5 -4,6 -3,6 0,5 0,7
          -1,7 0,5 0,12 0,7 -2,6 0,3 0,5 0,-1"
          fill="none"
          stroke="blue"
          stroke-width="2"/>

 <g id="budynki">
    <path d="M 593,377 l-16,-7 -5,11 -17,-7 -5,10 25,12 -11,35 13,6 z"
          fill="red"/>

    <path d="M 613,371 l12,4 -6,22 -14,-4 z"
          fill="red"/>

    <path d="M 602,411 l11,2 -3,20 -13,-3 z"
          fill="red"/>

    <path d="M 593,436 l15,4 -13,31 -14,0 z"
          fill="red"/>

    <path d="M 572,454 l-13,1 0,15 8,0 z"
          fill="red"/>

    <path d="M 326,476 l-15,-8 10,-33 19,5 z"
          fill="red"/>

    <path d="M 568,233 l-17,-6 21,-72 -6,-17 0,-13 -2,-6 -2,1 0,-1 -5,-6 2,-6
             9,-10 4,-12 2,-8 9,1 9,3 1,19 2,11 7,12 -2,10 -9,6
             -1,6 -2,13 -3,15 -6,21  z"
            fill="red"/>

    <path d="M 582,226 l3,-24 5,-21 12,-38 6,-1 4,1 10,4 4,0 6,1 6,1
             -1,19 -9,8 -5,5 0,10 -1,11 -2,6 -3,2 -7,-1 -10,-1 -4,2
             -1,7 -1,8 -7,5 -3,-3 z"
             fill="red"/>

    <path d="M 640,135 l-10,0 -5,-3 -8,-3 -5,-12 0,-6 2,-3 7,-8 4,-12 1,-4
             11,1 z"
             fill="red"/>

    <path d="M 618,69 l-12,0 2,-14 16,2 z"
          fill="red"/>
 
    <path d="M 598,343 l-22,-9 1,-13 17,2 z"
          fill="red"/>

    <path d="M 595,305 l-14,-5 16,-36 14,6 -15,36 z"
          fill="red"/>

    <path d="M 614,263 l-8,-6 24,-45 11,1 0,10 -11,15 -12,15 -3,13 z"
          fill="red"/>

    <path d="M 619,335 l-5,0 -2,-5 -1,-5 -3,-5 0,-3 0,-2 -1,-4 0,-5 10,-20
             9,-15 8,-10 5,-5 1,-3 -1,26 0,15 -9,1 -4,1 -4,11 0,7
             0,13 -2,8 z"
          fill="red"/>  
 </g> 


 <g id="drogi" visibility="visible">
    <path d="M 274,0 l0,5 0,10 0,18 0,5 -12,41 -3,7 -1,20 -2,81 8,22
             4,4 1,16 6,17 2,11 0,12 2,5 2,14 1,12 0,4 1,13
             5,9 0,11 0,14 1,6 2,9 1,15 0,5 0,11 1,7 1,14
             0,9 0,8 0,4 0,20 -1,11 0,8 -1,2"
          fill="none"
          stroke="gray"
          stroke-width="5"/>

    <path d="M 640,240 l-3,5 -2,4 -6,6 -5,4 -1,5 -1,5 -1,1 -3,5 -1,3
             -3,4 -2,3 -4,6 -3,5 0,2 -2,7 -3,6 0,3 0,2 0,3
             2,2 0,3 0,4 2,4 0,4 1,5 0,11 0,1 -1,6 0,3
             0,5 0,6 -2,6 0,5 -3,10 -1,2 -1,5 -1,4 -2,4 -2,8
             -1,11 -2,3 -6,9 -1,8 -1,4 0,5 -1,6 -3,10 0,1 0,6"
         fill="none"
         stroke="yellow"
         stroke-width="8"/>

    <path d="M 595,0 l0,12 0,9 0,10 0,9 0,13 3,11 0,15 1,18 3,6
             1,10 1,4 1,4 5,7 4,1 5,6 5,5 3,0 7,2 3,1
             2,0 1,0"
          fill="none"
          stroke="yellow"
          stroke-width="8"/>

    <path d="M 598,46 l9,1 5,1 7,0 5,2 4,-1 5,0 7,1 1,0"
          fill="none"
          stroke="yellow"
          stroke-width="8"/>

    <path d="M 608,134 l-7,5 -2,0 -3,4 -1,2 0,4 -1,4 -2,4 -2,2 0,3
             0,6 -1,6 -2,8 -1,6 -1,3 -4,9 -1,8 0,3 -1,8 -4,8
             0,4 -1,3"
          fill="none"
          stroke="yellow"
          stroke-width="8"/>
 
    <path d="M  602,127 l-25,-7 -18,0 -6,0 -9,0 -11,0 -15,0 -15,9 -10,4 -7,0
             -14,7 -9,13 -3,35 -6,11 -4,6 -4,3 -12,5 -5,6 -35,15 -9,7
             -7,6 -6,6 -5,6 -9,6 -1,0 -6,0 -14,0 -13,2 -12,10 -10,5
             -12,2 -4,1 -5,4"
          fill="none"
          stroke="black"
          stroke-dasharray= "5 2"
          stroke-width="1"/>

 </g>
 
 <g id="skaly" visibility="visible">
    <use xlink:href="#skala_cz" 
         transform="translate(308,40)"/>
    <use x="350" y= "60" xlink:href="#skala_cz" />
    <path id="sk_1" d="M0,33 l3,-21 10,5 3,-17 3,8 1,25 z"
          transform="translate(349,210)" 
          fill="black"/>
    <path id="sk_2" d="M0,33 l3,-21 10,5 3,-17 3,8 1,25 z"
          transform="translate(345,262) scale(0.7, 0.7)" 
          fill="black"/>
    <use xlink:href="#skala_cz"
         transform="translate(350,280) scale(0.7, 0.7)" />
    <use x="387" y="424" xlink:href="#skala_cz" />
    <use x="373" y="240" xlink:href="#skala_cz" />


    <use x="352" y="131" xlink:href="#skala_sz" />
    <use xlink:href="#skala_sz" transform="translate(520,115) scale(0.7, 0.7)"   />
    <use xlink:href="#skala_sz" 
         transform="translate(426,219) scale(0.7, 0.7)" />
    <use xlink:href="#skala_sz"   
         transform="translate(383,323) scale(0.7, 0.7)" />
    <use xlink:href="#skala_sz" 
         transform="translate(385,339) scale(0.7, 0.7)" />
    <use xlink:href="#skala_sz" 
         transform="translate(383,386) scale(0.7, 0.7)" />
    <use xlink:href="#skala_sz"  
         transform="translate(427,434) scale(0.7, 0.7)" />
    <use xlink:href="#skala_sz"  
         transform="translate(537,10) scale(0.7, 0.7)" />      
 </g>

 <path d="M382,471 a8,8 -1  0,1  16,0 "
       fill="white"
       stroke="black"/>

 <path d="M385,471 a5,5 -1  0,1  10,0 "/>


 
  <text x="379" y="80" font-weight="bold" >Wysoka</text>
  <text x="406" y="112" font-size="12">424</text>
  <text x="395" y="142" font-weight="bold"  >Lajkonik</text>
  <text x="387" y="200" font-weight="bold"  >Pytajnik</text>
  <text x="410" y="300" font-weight="bold"  >Brama</text>
  <text x="410" y="320" font-weight="bold"  >Bedkowska</text>
  <text x="512" y="384" font-size="12">415</text>
  <text x="420" y="443" font-weight="bold"  >Szaniec</text>

 </g>

</svg>


